<svg xmlns="http://www.w3.org/2000/svg" width="790" height="142" viewBox="0 0 790 142" role="img" aria-labelledby="title"><title id="title">Muhammad Ahmad. AI engineer. RAG apps, research agents, and local LLMs.</title><defs><pattern id="hatch" width="6" height="6" patternUnits="userSpaceOnUse"><path d="M0 6L6 0" stroke="#d1d9e0" stroke-width=".6"/></pattern><pattern id="grid" width="20" height="20" patternUnits="userSpaceOnUse"><path d="M20 0H0V20" fill="none" stroke="#d1d9e0" stroke-width=".5"/></pattern></defs><rect x="10" y="8" width="770" height="126" fill="#ffffff" stroke="#d1d9e0" stroke-width=".7"/><rect x="10" y="8" width="770" height="10" fill="url(#hatch)"/><path d="M10 18H780M10 112H780" fill="none" stroke="#d1d9e0" stroke-width=".7"/><text x="30" y="41" font-family="monospace" font-size="9" letter-spacing="1.5" fill="#59636e">AI ENGINEER</text><text x="29" y="77" font-family="Arial,Helvetica,sans-serif" font-size="32" font-weight="600" letter-spacing="-1" fill="#1f2328">Muhammad Ahmad</text><text x="30" y="99" font-family="Arial,Helvetica,sans-serif" font-size="13" fill="#59636e">RAG apps, research agents, and local LLMs.</text><text x="30" y="126" font-family="monospace" font-size="9" letter-spacing="1" fill="#59636e">PYTHON / FASTAPI</text><text x="765" y="126" text-anchor="end" font-family="monospace" font-size="9" fill="#59636e">MAhmad25</text><path d="M7 8h6M10 5v6" fill="none" stroke="#1f2328" stroke-width=".8"/><path d="M7 18h6M10 15v6" fill="none" stroke="#1f2328" stroke-width=".8"/><path d="M7 112h6M10 109v6" fill="none" stroke="#1f2328" stroke-width=".8"/><path d="M7 134h6M10 131v6" fill="none" stroke="#1f2328" stroke-width=".8"/><path d="M777 8h6M780 5v6" fill="none" stroke="#1f2328" stroke-width=".8"/><path d="M777 18h6M780 15v6" fill="none" stroke="#1f2328" stroke-width=".8"/><path d="M777 112h6M780 109v6" fill="none" stroke="#1f2328" stroke-width=".8"/><path d="M777 134h6M780 131v6" fill="none" stroke="#1f2328" stroke-width=".8"/></svg>
